<svg id="visual" viewBox="0 0 1920 1080" width="1920" height="1080" xmlns="http://www.w3.org/2000/svg" xmlns:xlink="http://www.w3.org/1999/xlink" version="1.1"><path d="M0 500L22.8 494C45.7 488 91.3 476 137 471.3C182.7 466.7 228.3 469.3 274 493C319.7 516.7 365.3 561.3 411.2 556.8C457 552.3 503 498.7 548.8 472.7C594.7 446.7 640.3 448.3 686 475.5C731.7 502.7 777.3 555.3 823 584C868.7 612.7 914.3 617.3 960 596.2C1005.7 575 1051.3 528 1097 521.3C1142.7 514.7 1188.3 548.3 1234 552.7C1279.7 557 1325.3 532 1371.2 539.7C1417 547.3 1463 587.7 1508.8 600.7C1554.7 613.7 1600.3 599.3 1646 575.5C1691.7 551.7 1737.3 518.3 1783 510C1828.7 501.7 1874.3 518.3 1897.2 526.7L1920 535L1920 1081L1897.2 1081C1874.3 1081 1828.7 1081 1783 1081C1737.3 1081 1691.7 1081 1646 1081C1600.3 1081 1554.7 1081 1508.8 1081C1463 1081 1417 1081 1371.2 1081C1325.3 1081 1279.7 1081 1234 1081C1188.3 1081 1142.7 1081 1097 1081C1051.3 1081 1005.7 1081 960 1081C914.3 1081 868.7 1081 823 1081C777.3 1081 731.7 1081 686 1081C640.3 1081 594.7 1081 548.8 1081C503 1081 457 1081 411.2 1081C365.3 1081 319.7 1081 274 1081C228.3 1081 182.7 1081 137 1081C91.3 1081 45.7 1081 22.8 1081L0 1081Z" fill="#f5f5f5"></path></svg>