<?xml version="1.0" encoding="UTF-8"?><svg id="Layer_1" xmlns="http://www.w3.org/2000/svg" viewBox="0 0 74.13 15.84"><defs><style>.cls-1{fill:#e7b46c;}</style></defs><path class="cls-1" d="M15.64,12.29c0,.98-.37,1.81-1.11,2.5-.74,.69-1.63,1.03-2.67,1.03-.64,0-1.28-.14-1.85-.43-.54-.28-.95-.64-1.22-1.09-.03-.05-.04-.1-.04-.15,0-.17,.14-.31,.31-.31,0,0,0,0,0,0,.09,0,.18,.04,.23,.12,.62,.78,1.45,1.17,2.49,1.17,.86,0,1.59-.27,2.18-.8,.59-.53,.88-1.12,.88-1.78,0-.65-.19-1.21-.56-1.65-.38-.46-.84-.84-1.36-1.14-.53-.31-1.06-.63-1.58-.93-.51-.29-.96-.67-1.34-1.12-.37-.43-.57-.98-.56-1.54,0-.59,.24-1.09,.71-1.49s1.08-.61,1.83-.61c.7,0,1.31,.26,1.82,.77,.06,.06,.09,.14,.09,.22v.06c0,.17-.14,.31-.31,.31-.08,0-.15-.03-.21-.08-.41-.38-.94-.59-1.5-.59-.42,0-.83,.15-1.14,.42-.33,.28-.5,.63-.5,1.04s.19,.79,.56,1.14c.41,.37,.86,.7,1.34,.96,.52,.29,1.05,.6,1.58,.93,.53,.33,.99,.76,1.36,1.26,.37,.51,.57,1.13,.56,1.77Z"/><path class="cls-1" d="M52.86,4.36V15.56h-.8v-2.79c-.46,.94-1.18,1.72-2.09,2.24-.9,.54-1.93,.82-2.98,.82-1.63,0-3.02-.58-4.18-1.73-1.16-1.15-1.74-2.53-1.74-4.14s.58-2.99,1.74-4.14c1.16-1.15,2.55-1.73,4.18-1.73,1.06,0,2.08,.28,3.05,.85,.97,.56,1.65,1.31,2.03,2.24v-2.81h.8Zm-10.99,5.62c0,1.39,.51,2.6,1.53,3.62,1.02,1.02,2.23,1.53,3.63,1.53,1.4,0,2.6-.51,3.59-1.53,.99-1.02,1.49-2.23,1.49-3.63,0-1.4-.5-2.61-1.5-3.64-1-1.03-2.2-1.54-3.59-1.54s-2.6,.52-3.62,1.55c-1.02,1.04-1.53,2.25-1.53,3.64Z"/><path class="cls-1" d="M73.35,1.93c-.48,0-.72-.22-.72-.67s.24-.67,.72-.67,.72,.22,.72,.67c0,.45-.24,.67-.72,.67Zm.4,2.74V15.83h-.8V4.66h.8Z"/><path class="cls-1" d="M69.22,8.43v7.4h-.05v-7.41c0-.96-.29-1.76-.86-2.4-.39-.44-.84-.73-1.35-.86,.53,.13,1,.42,1.4,.88,.57,.64,.86,1.44,.86,2.4Z"/><path class="cls-1" d="M60.23,4.49c-.34-.08-.69-.12-1.05-.12-.92,0-1.73,.36-2.42,1.09-.69,.73-1.04,1.72-1.04,2.96v7.4h-.05v-7.41c0-1.24,.35-2.23,1.04-2.96,.69-.73,1.5-1.09,2.42-1.09,.37,0,.74,.04,1.1,.13Z"/><path class="cls-1" d="M62.46,8.38v7.45h-.05v-7.46c0-.88-.31-1.65-.94-2.31-.44-.47-.92-.77-1.45-.91,.55,.13,1.05,.44,1.51,.92,.63,.66,.94,1.43,.94,2.31Z"/><path class="cls-1" d="M34.38,4.36h0s-.02,.01-.02,.01c-1.24,0-2.27,.48-3.11,1.44-.84,.96-1.26,2.13-1.26,3.51v6.5h-.05v-6.52c0-1.38,.42-2.54,1.26-3.51,.84-.96,1.88-1.44,3.11-1.44h.07Z"/><path class="cls-1" d="M38.17,9.33v6.5h-.05v-6.52c0-1.14-.36-2.14-1.07-2.98-.51-.6-1.09-.99-1.75-1.16,.68,.17,1.29,.56,1.81,1.18,.71,.85,1.07,1.84,1.07,2.99Z"/><path class="cls-1" d="M21.57,15.7c-.79-.2-1.48-.64-2.07-1.32-.84-.96-1.26-2.13-1.26-3.51V4.72c0-.2,.16-.35,.35-.35,.04,0,.08,0,.11,.02-.02,0-.04,0-.06,0-.19,0-.35,.16-.35,.35h0v6.16c0,1.38,.42,2.54,1.26,3.51,.58,.66,1.25,1.09,2.01,1.3Z"/><path class="cls-1" d="M15.7,12.31c0,.98-.37,1.81-1.11,2.5s-1.63,1.03-2.67,1.03c-.64,0-1.28-.15-1.85-.44-.54-.28-.95-.64-1.21-1.08-.03-.05-.04-.1-.04-.15,0-.17,.14-.31,.31-.31,0,0,0,0,0,0,.09,0,.18,.04,.23,.12,.62,.78,1.44,1.17,2.49,1.17,.86,0,1.59-.27,2.18-.8,.59-.53,.88-1.12,.88-1.78,0-.65-.19-1.21-.56-1.65-.38-.46-.84-.84-1.36-1.14-.53-.32-1.06-.63-1.58-.93-.51-.29-.96-.67-1.34-1.12-.37-.43-.57-.98-.56-1.54,0-.59,.24-1.09,.71-1.49,.47-.41,1.08-.61,1.83-.61,.7,0,1.31,.26,1.82,.77,.06,.06,.09,.14,.09,.22v.06c0,.17-.14,.31-.31,.31-.08,0-.15-.03-.21-.08-.41-.38-.94-.59-1.5-.59-.42,0-.83,.15-1.14,.42-.33,.28-.5,.63-.5,1.04s.19,.79,.56,1.14c.41,.37,.86,.7,1.34,.96,.52,.29,1.05,.6,1.58,.93,.53,.33,.99,.76,1.35,1.26,.37,.51,.57,1.13,.56,1.77Z"/><path class="cls-1" d="M52.91,4.38V15.57h-.8v-2.79c-.46,.94-1.18,1.72-2.09,2.24-.9,.54-1.93,.82-2.98,.82-1.62,0-3.02-.58-4.18-1.73-1.16-1.15-1.74-2.53-1.74-4.14,0-1.61,.58-2.99,1.74-4.14s2.55-1.73,4.18-1.73c1.06,0,2.08,.28,3.05,.85,.97,.56,1.65,1.31,2.03,2.24v-2.81h.8Zm-10.99,5.62c0,1.39,.51,2.6,1.53,3.62,1.02,1.02,2.23,1.53,3.63,1.53,1.4,0,2.6-.51,3.59-1.53,.99-1.02,1.49-2.23,1.49-3.63s-.5-2.61-1.5-3.64c-1-1.03-2.2-1.54-3.59-1.54-1.39,0-2.6,.52-3.62,1.55s-1.53,2.25-1.53,3.65Z"/><path class="cls-1" d="M73.41,1.94c-.48,0-.72-.22-.72-.67s.24-.67,.72-.67c.48,0,.72,.22,.72,.67s-.24,.67-.72,.67Zm.4,2.74V15.84h-.8V4.67h.8Z"/><path class="cls-1" d="M69.89,8.42v7.41h-.67v-7.39c0-.96-.29-1.76-.86-2.4-.41-.46-.88-.75-1.4-.88,0,0,0,0-.01,0-.23-.06-.47-.09-.71-.09-.81,0-1.52,.33-2.15,.99-.63,.66-.94,1.43-.94,2.31v7.46h-.32s-.36,.01-.36,.01v-7.46c0-.88-.31-1.65-.94-2.31-.46-.48-.96-.79-1.51-.92-.23-.06-.46-.09-.7-.09-.81,0-1.5,.32-2.07,.96-.57,.64-.86,1.44-.86,2.4v7.41h-.67v-7.4c0-1.24,.35-2.23,1.04-2.96,.69-.73,1.5-1.09,2.42-1.09,.35,0,.71,.04,1.05,.12,0,0,.02,0,.03,0,1.22,.3,2.19,1.22,2.54,2.43,.21-.74,.66-1.39,1.28-1.84,.64-.48,1.42-.72,2.35-.72,.27,0,.54,.03,.8,.1h.03c.58,.16,1.12,.49,1.59,.99,.7,.73,1.04,1.72,1.04,2.96Z"/><path class="cls-1" d="M66.94,5.15c-.21-.05-.43-.08-.65-.08-.81,0-1.52,.33-2.15,.99-.63,.66-.94,1.43-.94,2.31v7.46h-.36s.31-.01,.31-.01v-7.46c0-.88,.31-1.65,.94-2.31,.63-.66,1.34-.99,2.15-.99,.24,0,.48,.03,.71,.09Z"/><path class="cls-1" d="M69.94,8.43v7.41h-.72s.67-.01,.67-.01v-7.41c0-1.24-.35-2.23-1.04-2.96-.48-.5-1.01-.83-1.59-.99,.61,.15,1.16,.48,1.65,1,.69,.73,1.04,1.72,1.04,2.96Z"/><path class="cls-1" d="M60.01,5.15c-.21-.05-.42-.07-.64-.07-.81,0-1.5,.32-2.07,.96-.57,.64-.86,1.44-.86,2.4v7.41h-.72s.67-.01,.67-.01v-7.41c0-.96,.29-1.76,.86-2.4s1.26-.96,2.07-.96c.23,0,.47,.03,.7,.09Z"/><path class="cls-1" d="M38.82,9.31v6.51h-.65v-6.5c0-1.14-.36-2.14-1.07-2.98-.52-.62-1.12-1.01-1.81-1.18-.27-.07-.56-.11-.84-.11h-.02v.02h-.07c-1.01,0-1.88,.42-2.59,1.27-.71,.85-1.07,1.84-1.07,2.98v6.51h-.71v-6.51c0-1.38,.42-2.54,1.26-3.51,.84-.96,1.88-1.44,3.11-1.44h.02s.07-.01,.07-.01c.35,0,.7,.04,1.05,.13h.05c.76,.22,1.43,.65,2.01,1.32,.84,.96,1.26,2.13,1.26,3.5Z"/><path class="cls-1" d="M34.46,5.06c.28,0,.57,.03,.84,.11-.26-.06-.52-.09-.79-.09h-.07v-.02h.02Z"/><path class="cls-1" d="M38.88,9.33v6.51h-.71s.65-.01,.65-.01v-6.51c0-1.38-.42-2.54-1.26-3.51-.58-.66-1.25-1.09-2.01-1.3,.79,.2,1.48,.64,2.07,1.32,.84,.96,1.26,2.13,1.26,3.51Z"/><path class="cls-1" d="M27.13,4.72v6.16c0,1.38-.42,2.54-1.26,3.51-.84,.96-1.88,1.44-3.13,1.44h0c-.38,.02-.75-.02-1.11-.11h-.05c-.76-.22-1.43-.65-2.01-1.32-.84-.96-1.26-2.13-1.26-3.51V4.73c0-.19,.16-.35,.35-.35,0,0,0,0,0,0,.02,0,.04,0,.06,0,.14,.05,.24,.18,.24,.33v6.16c0,1.14,.36,2.14,1.07,2.98,.52,.62,1.12,1.01,1.81,1.18,.27,.07,.56,.11,.84,.11h.02v-.02h.07c1.02,0,1.88-.42,2.59-1.27,.71-.85,1.07-1.84,1.07-2.98V4.72c0-.2,.17-.35,.37-.34,.18,0,.33,.15,.34,.34h0Z"/><path class="cls-1" d="M21.83,15.04c-.68-.17-1.29-.56-1.81-1.18-.71-.85-1.07-1.84-1.07-2.98V4.72c0-.15-.1-.28-.24-.33,.17,.03,.29,.18,.29,.35v6.16c0,1.14,.36,2.14,1.07,2.98,.51,.6,1.09,.99,1.75,1.16Z"/><path class="cls-1" d="M27.19,4.73v6.16c0,1.38-.42,2.54-1.26,3.51-.85,.98-1.91,1.46-3.18,1.44h0c1.24,0,2.29-.49,3.13-1.45,.84-.96,1.26-2.13,1.26-3.5V4.72c0-.15-.1-.28-.24-.33,.17,.03,.29,.18,.29,.35Z"/><path class="cls-1" d="M7.12,15.14v.7c-1.57,0-2.91-.39-4.02-1.18-1.11-.79-1.66-1.79-1.66-3.02V5.22H0v-.7H1.45V0h1.06V4.53H6.91v.7H2.51v6.41c0,1.01,.45,1.85,1.34,2.51,.9,.66,1.99,.99,3.27,.99Z"/></svg>